<svg xmlns="http://www.w3.org/2000/svg" width="32" height="32" viewBox="0 0 24 24" fill="#1DA1F2"><path d="M24 4.557a9.835 9.835 0 0 1-2.828.775 4.932 4.932 0 0 0 2.165-2.724 9.864 9.864 0 0 1-3.127 1.195 4.918 4.918 0 0 0-8.379 4.482C7.69 8.094 4.066 6.13 1.64 3.161a4.902 4.902 0 0 0-.666 2.475c0 1.708.869 3.213 2.188 4.096a4.904 4.904 0 0 1-2.229-.616v.06a4.923 4.923 0 0 0 3.946 4.827 4.996 4.996 0 0 1-2.224.084 4.936 4.936 0 0 0 4.604 3.417A9.867 9.867 0 0 1 0 19.54 13.94 13.94 0 0 0 7.548 21c9.142 0 14.307-7.721 13.995-14.646A9.936 9.936 0 0 0 24 4.557z"/></svg>